<svg width="64" height="64" viewBox="0 0 64 64" fill="none" xmlns="http://www.w3.org/2000/svg">
  <path d="M30.447 57.988C25.0383 57.988 20.7073 56.9713 17.454 54.938C14.2007 52.864 12.574 49.7123 12.574 45.483C12.574 43.2463 12.9603 41.5383 13.733 40.359C14.5057 39.1797 15.6443 38.59 17.149 38.59C18.247 38.59 19.1417 38.8747 19.833 39.444C20.5243 40.0133 20.87 40.7453 20.87 41.64C20.87 42.4533 20.809 43.165 20.687 43.775C20.687 43.9377 20.6463 44.2223 20.565 44.629C20.5243 45.0357 20.504 45.4627 20.504 45.91C20.504 47.74 21.419 49.1023 23.249 49.997C25.1197 50.8917 27.7223 51.339 31.057 51.339C34.5137 51.339 37.218 50.729 39.17 49.509C41.122 48.2483 42.098 46.4997 42.098 44.263C42.098 42.8803 41.6507 41.701 40.756 40.725C39.8613 39.7083 38.743 38.8747 37.401 38.224C36.059 37.5327 34.168 36.699 31.728 35.723C28.5967 34.503 26.0347 33.344 24.042 32.246C22.09 31.148 20.4023 29.6637 18.979 27.793C17.5963 25.8817 16.905 23.523 16.905 20.717C16.905 17.789 17.6777 15.1863 19.223 12.909C20.809 10.6317 23.066 8.86266 25.994 7.602C28.9627 6.34133 32.4397 5.711 36.425 5.711C39.3937 5.711 42.1183 6.15833 44.599 7.053C47.0797 7.907 49.052 9.22866 50.516 11.018C52.0207 12.8073 52.773 15.0033 52.773 17.606C52.773 20.168 52.3867 22.0997 51.614 23.401C50.8413 24.7023 49.7027 25.353 48.198 25.353C47.1407 25.353 46.246 25.0277 45.514 24.377C44.8227 23.7263 44.477 22.9537 44.477 22.059C44.477 21.2863 44.538 20.5747 44.66 19.924C44.782 18.704 44.843 17.9313 44.843 17.606C44.843 15.898 44.0093 14.5967 42.342 13.702C40.6747 12.8073 38.6007 12.36 36.12 12.36C32.6227 12.36 29.9387 13.0107 28.068 14.312C26.238 15.5727 25.323 17.362 25.323 19.68C25.323 21.2253 25.7907 22.547 26.726 23.645C27.702 24.743 28.9017 25.658 30.325 26.39C31.7483 27.122 33.741 27.9963 36.303 29.013C39.3937 30.2737 41.8743 31.4123 43.745 32.429C45.6157 33.4457 47.2017 34.8283 48.503 36.577C49.845 38.3257 50.516 40.481 50.516 43.043C50.516 47.8417 48.686 51.5423 45.026 54.145C41.4067 56.707 36.547 57.988 30.447 57.988Z" fill="#1FAC90"/>
</svg>
